<?xml version="1.0" encoding="UTF-8" standalone="no"?>
<!-- Created with Inkscape (http://www.inkscape.org/) -->

<svg
   version="1.1"
   id="svg2"
   width="6369.3809"
   height="1308.1058"
   viewBox="0 0 6369.3807 1308.1058"
   sodipodi:docname="logo.svg"
   inkscape:version="1.2.2 (b0a8486541, 2022-12-01)"
   xmlns:inkscape="http://www.inkscape.org/namespaces/inkscape"
   xmlns:sodipodi="http://sodipodi.sourceforge.net/DTD/sodipodi-0.dtd"
   xmlns:xlink="http://www.w3.org/1999/xlink"
   xmlns="http://www.w3.org/2000/svg"
   xmlns:svg="http://www.w3.org/2000/svg">
  <defs
     id="defs6">
    <linearGradient
       inkscape:collect="always"
       id="linearGradient923">
      <stop
         style="stop-color:#41374d;stop-opacity:1;"
         offset="0"
         id="stop919" />
      <stop
         style="stop-color:#2d2a2f;stop-opacity:1;"
         offset="1"
         id="stop921" />
    </linearGradient>
    <radialGradient
       inkscape:collect="always"
       xlink:href="#linearGradient923"
       id="radialGradient925"
       cx="1305.4764"
       cy="986.31982"
       fx="1305.4764"
       fy="986.31982"
       r="465.0047"
       gradientTransform="matrix(6.7459087,0.37473344,-0.09171441,1.6510326,-7399.7482,-1216.2017)"
       gradientUnits="userSpaceOnUse" />
  </defs>
  <sodipodi:namedview
     id="namedview4"
     pagecolor="#ffffff"
     bordercolor="#666666"
     borderopacity="1.0"
     inkscape:showpageshadow="2"
     inkscape:pageopacity="0.0"
     inkscape:pagecheckerboard="0"
     inkscape:deskcolor="#d1d1d1"
     showgrid="false"
     inkscape:zoom="0.35399998"
     inkscape:cx="6429.3789"
     inkscape:cy="1155.3673"
     inkscape:window-width="1770"
     inkscape:window-height="1063"
     inkscape:window-x="150"
     inkscape:window-y="0"
     inkscape:window-maximized="1"
     inkscape:current-layer="g8" />
  <g
     inkscape:groupmode="layer"
     inkscape:label="Image"
     id="g8"
     transform="translate(3102.8364,-627.01898)">
    <rect
       style="fill:#ffffff;fill-opacity:1;stroke:none;stroke-width:5.04945;stroke-linecap:round;stroke-linejoin:round;paint-order:fill markers stroke;stop-color:#000000"
       id="rect1205"
       width="6369.3809"
       height="1308.1058"
       x="-3102.8364"
       y="627.01898"
       ry="83.039757" />
    <path
       style="fill:url(#radialGradient925);fill-opacity:1;stroke-width:1.33333"
       d="m 1065.3333,1783.2911 c -26.6252,-2.1863 -62.6551,-12.5724 -88.35701,-25.4703 -37.85926,-18.9986 -73.55631,-50.3236 -96.88577,-85.0194 -17.26031,-25.6699 -31.97316,-60.7294 -38.06164,-90.6976 -5.6733,-27.9248 -6.02887,-43.4224 -6.02887,-262.7705 0,-136.6943 0.49659,-214.8907 1.44632,-227.7501 3.54188,-47.9573 17.34495,-87.6256 44.39224,-127.5776 15.07737,-22.271 42.06252,-49.26863 64.16144,-64.19106 39.44154,-26.63312 80.11819,-40.93469 126.48799,-44.47212 23.5464,-1.79629 435.4776,-1.79629 459.024,0 114.1728,8.70994 205.3722,88.98318 230.2416,202.65758 l 4.2298,19.3333 0.013,242.6667 0.013,242.6667 -4.2393,18.6667 c -5.4448,23.9744 -11.9197,42.3686 -21.9759,62.4293 -35.3786,70.5759 -98.2209,118.8163 -177.1181,135.9629 l -19.3333,4.2018 -232.6667,0.202 c -127.9667,0.1106 -238.3667,-0.2662 -245.3334,-0.8383 z M 1504,1728.8134 c 0,-7.085 -17.5481,-97.2267 -24.5522,-126.1203 -1.7742,-7.3188 -2.9823,-13.7008 -2.6848,-14.1823 0.2976,-0.4813 2.5678,-1.2554 5.0453,-1.7201 11.4012,-2.1389 50.4364,-13.2489 63.7056,-18.1316 8.0964,-2.9792 19.9179,-8.0171 26.2701,-11.1951 18.4624,-9.237 16.3828,-10.2544 21.3308,10.4348 5.8556,24.4848 15.0784,69.3126 20.869,101.4346 2.6438,14.6666 5.0697,27.4413 5.3908,28.388 1.02,3.0077 19.683,-10.8719 34.3772,-25.5662 28.6192,-28.619 45.858,-60.534 55.1792,-102.1552 l 3.434,-15.3333 0.5985,-85.3333 c 0.3291,-46.9334 0.3971,-87.6915 0.1508,-90.5735 l -0.4476,-5.2403 -14.238,21.2403 c -19.9652,29.7839 -34.404,47.4572 -57.6572,70.5735 -35.0823,34.8756 -70.6364,58.381 -109.9623,72.6978 -19.3396,7.0406 -56.2588,16.5978 -74.8092,19.3656 -20.9125,3.1204 -60.6126,3.121 -81.3333,0 -28.3921,-4.2748 -60.5295,-14.2637 -84.2321,-26.1812 -26.4446,-13.2961 -60.804,-36.4411 -81.1819,-54.6852 -34.5563,-30.9379 -62.4909,-65.6888 -89.9231,-111.8648 -9.6855,-16.3036 -35.6287,-67.5848 -40.5902,-80.2335 l -2.9681,-7.5669 5.6254,-5.0998 c 13.9239,-12.623 34.5692,-25.8549 51.4383,-32.9674 10.9375,-4.6117 27.921,-7.4658 44.4253,-7.4658 7.4747,0 8.2434,0.2746 9.4181,3.3642 3.207,8.4351 16.7698,36.5869 24.8202,51.5185 29.1992,54.1576 63.6234,96.825 99.3746,123.1706 26.6172,19.6148 70.6948,32.5096 111.3919,32.5874 19.414,0.037 42.278,-3.258 54.9016,-7.9125 93.0103,-34.294 167.3709,-144.09 218.6565,-322.8538 14.0054,-48.8179 13.7415,-45.7545 5.8938,-68.4285 -22.8396,-65.9891 -77.5736,-114.12814 -148.3836,-130.50459 l -12.6667,-2.92945 -221.0331,-0.36966 -221.033,-0.36965 0.6685,3.03041 c 0.3677,1.66672 2.2164,12.03042 4.1081,23.03042 4.8053,27.94112 11.8994,63.73722 18.0588,91.12312 5.927,26.3524 5.815,25.5435 3.5361,25.5435 -3.9128,0 -56.0844,14.9517 -68.9721,19.7665 -7.7,2.8767 -20.1258,8.2549 -27.6129,11.9515 -11.6017,5.7281 -13.7117,6.3932 -14.281,4.5016 -3.9982,-13.283 -21.32833,-96.3235 -26.75874,-128.2196 -3.06849,-18.023 -3.2364,-18.6666 -4.87009,-18.6666 -3.38992,0 -20.13891,13.5361 -33.81059,27.3249 -28.09378,28.3345 -45.40284,60.2482 -54.24159,100.0084 -2.87565,12.9359 -2.97835,16.075 -3.44489,105.3059 -0.26448,50.5849 -0.2023,91.6849 0.13821,91.3334 0.34049,-0.3516 5.56676,-8.1393 11.61393,-17.306 21.0149,-31.8556 39.64135,-54.4477 65.13537,-79.0029 42.11179,-40.561 80.89549,-62.3062 138.79899,-77.8217 32.6093,-8.7378 51.523,-11.3375 82,-11.2708 66.4757,0.1455 120.116,19.149 182.4121,64.6245 51.7739,37.7943 96.3196,94.3751 135.0442,171.5297 6.8253,13.599 14.4872,29.5788 17.0261,35.5107 l 4.6163,10.7852 -4.8827,4.6138 c -19.9176,18.8208 -50.7751,35.8704 -70.8827,39.1646 -14.0854,2.3078 -34.6666,2.5078 -34.6666,0.337 0,-2.5692 -24.9599,-52.9103 -33.618,-67.8034 -10.3414,-17.7886 -26.3347,-41.4361 -37.8739,-56 -12.3788,-15.6235 -37.5642,-40.5323 -51.1378,-50.5761 -37.6906,-27.8893 -91.7272,-39.6417 -146.7037,-31.9066 -11.5223,1.6212 -27.5204,6.8643 -40,13.1094 -80.0832,40.0753 -142.74801,132.8438 -190.51718,282.04 -10.96248,34.2388 -21.68046,73.5851 -21.66568,79.5357 0.007,2.6779 2.36727,11.6779 5.2458,20 10.84807,31.3626 24.80098,53.7138 48.11123,77.0694 8.52088,8.5374 20.58946,19.0122 26.81906,23.2772 29.51017,20.2036 64.82537,32.86 98.67347,35.3632 7.7,0.5693 107.45,1.1221 221.6666,1.2282 202.8159,0.1884 207.6667,0.1342 207.6667,-2.327 z"
       id="path293" />
    <g
       aria-label="spaghetti"
       id="text1136-3"
       style="font-size:918.835px;line-height:125%;font-family:NanumGothic;-inkscape-font-specification:NanumGothic;text-align:center;letter-spacing:-30.14px;word-spacing:0px;text-anchor:middle;stroke-width:4.7856px"
       transform="translate(0,38)">
      <path
         d="m -2895.4213,1504.2085 q 56.0489,22.9708 115.7732,22.9708 49.6171,0 81.7763,-23.8897 32.1593,-24.8085 32.1593,-66.1561 0,-23.8897 -18.3767,-45.9417 -17.4579,-22.9709 -43.1853,-37.6723 -28.4839,-15.6202 -58.8054,-29.4027 -29.4028,-14.7014 -56.9678,-30.3216 -33.0781,-18.3767 -48.6983,-45.0229 -15.6202,-27.565 -15.6202,-56.9677 0,-33.9969 12.8637,-59.7243 12.8637,-25.7274 34.9158,-43.1853 22.052,-17.4578 51.4547,-25.7273 29.4028,-8.2696 62.4808,-8.2696 34.9157,0 60.6431,3.6754 25.7274,3.6753 51.4548,11.026 5.513,1.8377 9.1883,5.513 4.5942,3.6754 3.6754,10.1072 l -2.7565,27.565 q -0.9189,7.3507 -5.513,9.1884 -4.5942,1.8377 -9.1884,0 -22.9709,-8.2695 -45.9417,-11.026 -22.9709,-3.6754 -55.1301,-3.6754 -106.5849,0 -106.5849,84.5329 0,18.3767 13.7825,34.9157 14.7014,16.539 48.6983,33.0781 29.4027,14.7013 57.8866,28.4838 28.4839,12.8637 61.5619,31.2404 28.4839,15.6202 46.8606,47.7795 19.2955,32.1592 19.2955,69.8314 0,36.7534 -14.7013,63.3996 -14.7014,26.6462 -39.5099,44.1041 -24.8086,17.4579 -56.9678,25.7274 -32.1592,9.1883 -66.1561,9.1883 -20.2144,0 -36.7534,-0.9188 -15.6202,-0.9188 -30.3216,-2.7565 -13.7825,-1.8377 -28.4839,-4.5942 -14.7013,-2.7565 -31.2403,-7.3507 -12.8637,-4.5941 -11.9449,-16.539 l 3.6753,-33.9969 q 1.8377,-14.7013 14.7014,-9.1883 z"
         id="path1052" />
      <path
         d="m -2167.5226,1309.4154 q 0,-37.6722 -7.3507,-72.5879 -7.3507,-35.8346 -24.8085,-63.3996 -17.4579,-27.5651 -45.0229,-44.1041 -27.5651,-17.4579 -68.9127,-17.4579 -37.6722,0 -65.2372,15.6202 -27.5651,15.6202 -45.9418,43.1853 -17.4579,26.6462 -26.6462,62.4807 -9.1884,35.8346 -9.1884,76.2633 0,106.5849 39.5099,161.715 40.4288,54.2113 107.5037,54.2113 34.9158,0 61.562,-14.7014 27.565,-15.6202 45.9417,-44.1041 19.2956,-28.4839 28.4839,-67.9938 10.1072,-39.5099 10.1072,-89.127 z m -354.6703,-228.7899 q 0,-12.8637 12.8637,-12.8637 h 34.9157 q 12.8637,0 12.8637,12.8637 l -4.5942,68.9127 q 18.3767,-40.4288 61.562,-65.2373 44.1041,-24.8086 101.9907,-24.8086 54.2112,0 91.8835,19.2956 38.591,19.2955 62.4807,53.2924 24.8086,33.078 35.8346,79.0198 11.9449,45.9417 11.9449,98.3153 0,56.9678 -13.7826,105.6661 -12.8637,48.6982 -38.591,84.5328 -24.8086,35.8346 -62.4808,56.0489 -37.6722,21.1332 -87.2893,21.1332 -56.049,0 -96.4777,-22.052 -40.4288,-21.1332 -61.562,-59.7243 v 197.5495 q 0,12.8637 -12.8637,12.8637 h -34.9157 q -5.513,0 -10.1072,-3.6753 -3.6753,-3.6753 -3.6753,-9.1884 z"
         id="path1054" />
      <path
         d="m -1701.4908,1305.7401 h -17.4579 q -51.4548,-1.8377 -91.8835,4.5942 -39.5099,5.513 -66.1561,15.6202 -38.5911,13.7825 -57.8866,41.3476 -19.2956,26.6462 -19.2956,64.3184 0,22.9709 7.3507,43.1852 7.3507,19.2956 22.9709,30.3216 27.565,22.052 73.5068,22.052 32.1592,0 58.8054,-12.8636 27.5651,-12.8637 47.7795,-36.7534 20.2143,-23.8898 31.2403,-58.8055 11.0261,-35.8346 11.0261,-81.7763 z m -261.868,-160.7961 q -4.5942,2.7565 -9.1884,1.8376 -3.6753,-1.8376 -3.6753,-6.4318 v -34.9157 q 0,-12.8637 12.8637,-19.2956 32.1592,-17.4578 67.9938,-23.8897 36.7534,-7.3507 79.9386,-7.3507 91.8835,0 134.1499,44.1041 42.2664,43.1853 42.2664,131.3934 v 230.6276 q 0,27.5651 0.9189,49.6171 0.9188,21.1332 2.7565,41.3476 0,12.8637 -12.8637,12.8637 h -33.0781 q -12.8637,0 -12.8637,-12.8637 v -70.7503 q -19.2955,46.8606 -65.2372,72.588 -45.023,25.7273 -98.3154,25.7273 -92.8023,0 -135.9876,-54.2112 -14.7013,-18.3767 -22.052,-42.2664 -7.3507,-24.8086 -7.3507,-48.6983 0,-56.0489 25.7274,-96.4777 26.6462,-40.4287 80.8575,-60.6431 66.1561,-23.8897 203.0625,-23.8897 h 11.9449 v -27.565 q 0,-57.8866 -26.6463,-88.2082 -25.7273,-30.3216 -87.2893,-30.3216 -41.3476,0 -78.101,9.1884 -36.7534,8.2695 -69.8314,28.4839 z"
         id="path1056" />
      <path
         d="m -1175.7356,1314.0096 q 0,-98.3153 -40.4288,-151.6078 -40.4287,-53.2924 -109.3413,-53.2924 -74.4257,0 -112.0979,49.6171 -37.6722,49.6171 -37.6722,157.1208 0,39.5099 11.026,72.588 11.026,33.078 30.3215,56.9677 19.2956,22.9709 45.9418,36.7534 26.6462,12.8637 57.8866,12.8637 32.1592,0 60.6431,-12.8637 28.4839,-13.7825 48.6983,-37.6722 21.1332,-24.8086 33.078,-57.8866 11.9449,-33.0781 11.9449,-72.588 z m -316.0793,371.2094 q -11.026,-2.7565 -9.1883,-13.7826 l 2.7565,-40.4287 q 0,-11.9449 11.9448,-5.513 34.9158,15.6202 67.075,22.052 32.1592,7.3507 69.8315,7.3507 83.614,0 124.9615,-51.4547 42.2664,-50.536 47.7795,-138.7441 -21.1333,41.3475 -62.4808,62.4807 -41.3476,21.1333 -91.8835,21.1333 -45.0229,0 -83.614,-16.5391 -38.5911,-16.539 -67.075,-46.8606 -28.4839,-30.3215 -45.0229,-73.5068 -16.539,-43.1852 -16.539,-95.5588 0,-61.562 11.026,-109.3414 11.9449,-48.6982 36.7534,-81.7763 24.8085,-33.0781 64.3184,-50.5359 39.51,-17.4579 95.5589,-17.4579 48.6982,0 85.4516,16.539 37.6723,15.6202 76.2634,56.9678 l -1.8377,-49.6171 q 0,-12.8637 12.8637,-12.8637 h 34.9157 q 12.8637,0 12.8637,12.8637 v 367.534 q 0,59.7243 -15.6202,107.5037 -14.7014,48.6983 -45.0229,81.7763 -29.4027,33.9969 -73.5068,51.4548 -44.1041,18.3767 -101.0719,18.3767 -41.3475,0 -72.5879,-5.513 -31.2404,-4.5942 -68.9127,-16.539 z"
         id="path1058" />
      <path
         d="m -593.93059,1551.9879 q 0,12.8637 -12.86369,12.8637 h -36.7534 q -12.86369,0 -12.86369,-12.8637 v -283.0012 q 0,-44.1041 -8.26951,-74.4256 -7.35068,-31.2404 -22.05204,-49.6171 -14.70136,-19.2956 -35.83457,-27.5651 -21.1332,-8.2695 -46.86059,-8.2695 -75.34447,0 -115.77321,35.8346 -39.5099,35.8345 -39.5099,99.2342 v 307.8097 q 0,12.8637 -12.86369,12.8637 h -36.75341 q -12.86369,0 -12.86369,-12.8637 V 846.32259 q 0,-12.86369 12.86369,-12.86369 h 36.75341 q 12.86369,0 12.86369,12.86369 v 266.46211 q 25.72738,-29.4027 63.39961,-42.2664 38.59107,-13.7825 95.55884,-13.7825 89.127,0 130.47458,52.3736 41.34757,52.3736 41.34757,158.9585 z"
         id="path1060" />
      <path
         d="m -153.62615,1281.8504 q 0,-37.6722 -7.35068,-67.075 -7.35068,-29.4027 -22.97088,-53.2924 -33.99689,-54.2113 -98.31534,-54.2113 -66.15613,0 -107.5037,55.1301 -16.53903,24.8086 -27.56505,56.9678 -11.02602,32.1592 -11.94486,62.4808 z m -275.65051,52.3736 q -0.91883,45.9417 10.10719,81.7763 11.94485,34.9157 33.99689,58.8054 22.05204,23.8898 52.3736,36.7534 31.24039,12.8637 68.91263,12.8637 36.7534,0 68.91262,-6.4318 32.15923,-7.3507 59.72428,-22.9709 11.94485,-5.513 11.94485,6.4319 v 41.3475 q 0,8.2696 -10.10718,12.8637 -30.32156,11.9449 -63.39962,17.4579 -33.07806,6.4318 -71.66913,6.4318 -113.01671,0 -170.90331,-65.2372 -57.88661,-66.1562 -57.88661,-198.4684 0,-116.6921 57.88661,-188.3612 60.64311,-72.588 153.44545,-72.588 51.45476,0 89.12699,18.3767 37.67224,18.3767 64.31845,55.1301 46.86059,65.2373 46.86059,174.5787 0,11.9449 -0.918835,18.3767 0,6.4318 -2.756505,9.1884 -2.756505,2.7565 -10.107185,3.6753 -6.431845,0 -19.295535,0 z"
         id="path1062" />
      <path
         d="m 241.65438,1565.7704 q -38.59107,13.7825 -76.26331,13.7825 -74.425637,0 -98.315348,-48.6982 -15.620195,-33.0781 -15.620195,-116.6921 v -293.1083 h -86.370492 q -12.86369,0 -12.86369,-12.8637 v -27.5651 q 0,-12.8637 12.86369,-12.8637 H 51.455527 V 943.71911 q 0,-13.78253 11.944855,-13.78253 h 38.591068 q 11.94486,0 11.94486,13.78253 V 1067.7618 H 215.927 q 12.86369,0 12.86369,12.8637 v 27.5651 q 0,12.8637 -12.86369,12.8637 H 113.93631 v 324.3487 q 0,81.7763 66.15612,81.7763 25.72738,0 57.88661,-11.026 4.59417,-1.8376 8.26951,0 4.59418,1.8377 4.59418,7.3507 l 1.83767,23.8897 q 1.83767,12.8637 -11.02602,18.3767 z"
         id="path1064" />
      <path
         d="m 545.05233,1565.7704 q -38.59108,13.7825 -76.26331,13.7825 -74.42564,0 -98.31535,-48.6982 -15.62019,-33.0781 -15.62019,-116.6921 v -293.1083 h -86.3705 q -12.86369,0 -12.86369,-12.8637 v -27.5651 q 0,-12.8637 12.86369,-12.8637 h 86.3705 V 943.71911 q 0,-13.78253 11.94485,-13.78253 h 38.59107 q 11.94486,0 11.94486,13.78253 v 124.04269 h 101.99069 q 12.86369,0 12.86369,12.8637 v 27.5651 q 0,12.8637 -12.86369,12.8637 H 417.33426 v 324.3487 q 0,81.7763 66.15612,81.7763 25.72738,0 57.88661,-11.026 4.59417,-1.8376 8.26951,0 4.59418,1.8377 4.59418,7.3507 l 1.83767,23.8897 q 1.83767,12.8637 -11.02602,18.3767 z"
         id="path1066" />
      <path
         d="m 682.14114,1551.9879 q 0,12.8637 -12.86369,12.8637 H 628.8487 q -12.86369,0 -12.86369,-12.8637 v -471.3624 q 0,-12.8637 12.86369,-12.8637 h 40.42875 q 12.86369,0 12.86369,12.8637 z M 604.04016,894.10201 q 0,-18.3767 12.86369,-31.24039 12.86369,-13.78252 31.24039,-13.78252 18.3767,0 31.24039,13.78252 13.78253,12.86369 13.78253,31.24039 0,18.37671 -13.78253,31.2404 -12.86369,12.86369 -31.24039,12.86369 -18.3767,0 -31.24039,-12.86369 -12.86369,-12.86369 -12.86369,-31.2404 z"
         id="path1068" />
    </g>
    <g
       aria-label="um"
       id="text983"
       style="font-size:918.835px;line-height:125%;font-family:NanumGothic;-inkscape-font-specification:NanumGothic;text-align:center;letter-spacing:-30.14px;word-spacing:0px;text-anchor:middle;stroke-width:4.7856px"
       transform="translate(0,38)">
      <path
         d="m 2278.9177,1551.9879 q 0,12.8637 -12.8637,12.8637 h -33.078 q -12.8637,0 -12.8637,-12.8637 v -76.2633 q -23.8897,55.1301 -64.3185,79.0198 -39.5099,24.8085 -100.153,24.8085 -171.8221,0 -171.8221,-192.0365 v -306.8909 q 0,-12.8637 12.8636,-12.8637 h 36.7534 q 12.8637,0 12.8637,12.8637 v 290.3519 q 0,156.2019 119.4486,156.2019 34.9157,0 62.4808,-14.7013 28.4839,-15.6202 47.7794,-41.3476 19.2955,-26.6462 29.4027,-61.5619 10.1072,-34.9158 9.1884,-73.5068 v -255.4362 q 0,-12.8637 12.8637,-12.8637 h 36.7534 q 12.8636,0 12.8636,12.8637 v 369.3717 q 0,30.3216 0,54.2113 0.9189,23.8897 1.8377,47.7794 z"
         id="path1118" />
      <path
         d="m 2411.4124,1184.4539 q 0,-38.5911 -0.9189,-60.6431 -0.9188,-22.9709 -2.7565,-43.1853 0,-12.8637 12.8637,-12.8637 h 33.9969 q 12.8637,0 12.8637,12.8637 v 49.6171 q 21.1332,-33.9969 56.9678,-53.2924 35.8345,-20.2144 88.2081,-20.2144 55.1301,0 96.4777,27.5651 41.3476,26.6462 50.5359,79.0198 19.2956,-52.3736 61.562,-79.0198 43.1852,-27.5651 99.2342,-27.5651 35.8345,0 64.3184,12.8637 29.4027,12.8637 49.6171,35.8346 21.1332,22.052 32.1592,52.3736 11.026,30.3215 11.026,64.3184 v 329.8618 q 0,12.8637 -12.8636,12.8637 h -34.9158 q -12.8637,0 -12.8637,-11.9449 v -317.9169 q 0,-125.8804 -105.666,-125.8804 -32.1592,0 -57.8866,14.7014 -24.8085,13.7825 -43.1852,38.591 -17.4579,24.8086 -26.6463,57.8866 -8.2695,33.0781 -7.3506,69.8315 v 261.868 q 0,12.8637 -12.8637,12.8637 h -36.7534 q -12.8637,0 -12.8637,-12.8637 v -316.9981 q 0,-125.8804 -106.5849,-125.8804 -62.4808,0 -98.3153,40.4288 -35.8346,40.4287 -35.8346,106.5848 v 295.8649 q 0,12.8637 -12.8637,12.8637 h -35.8346 q -12.8636,0 -12.8636,-12.8637 z"
         id="path1120" />
    </g>
  </g>
</svg>
